<svg xmlns="http://www.w3.org/2000/svg" id="analysis_1_" width="100" height="100" data-name="analysis (1)" viewBox="0 0 100 100">
    <defs>
        <style>
            .cls-1{fill:#3939f8}
        </style>
    </defs>
    <g id="Group_5491" data-name="Group 5491">
        <g id="Group_5490" data-name="Group 5490">
            <path id="Path_36662" d="M99.428 18.343L81.654.572A1.953 1.953 0 0 0 80.273 0H22.266a5.866 5.866 0 0 0-5.859 5.859v3.724A25.841 25.841 0 0 0 0 33.612a1.953 1.953 0 0 0 1.953 1.953H25.8a1.953 1.953 0 0 0 1.953-1.953V9.766A1.953 1.953 0 0 0 25.8 7.813a25.788 25.788 0 0 0-5.487.589V5.859a1.955 1.955 0 0 1 1.953-1.953H78.32V15.82a5.866 5.866 0 0 0 5.86 5.86h11.914v72.461a1.955 1.955 0 0 1-1.953 1.953H22.266a1.955 1.955 0 0 1-1.953-1.953V77.409a1.953 1.953 0 0 0-3.906 0v16.732A5.866 5.866 0 0 0 22.266 100h71.875A5.866 5.866 0 0 0 100 94.141V19.724a1.953 1.953 0 0 0-.572-1.381zm-75.582-6.538v19.853H3.993a21.929 21.929 0 0 1 19.853-19.853zm60.334 5.968a1.955 1.955 0 0 1-1.953-1.953V6.668l11.107 11.105z" class="cls-1" data-name="Path 36662"/>
        </g>
    </g>
    <g id="Group_5493" data-name="Group 5493" transform="translate(16.405 68.356)">
        <g id="Group_5492" data-name="Group 5492">
            <path id="Path_36663" d="M87.338 350.573a1.954 1.954 0 1 0 .573 1.382 1.969 1.969 0 0 0-.573-1.382z" class="cls-1" data-name="Path 36663" transform="translate(-84 -350)"/>
        </g>
    </g>
    <g id="Group_5495" data-name="Group 5495" transform="translate(7.004 14.825)">
        <g id="Group_5494" data-name="Group 5494">
            <path id="Path_36664" d="M61.648 75.819a1.956 1.956 0 0 0-1.955 1.955v21.918H37.774a1.956 1.956 0 0 0-1.955 1.955 25.829 25.829 0 1 0 25.829-25.828zm1.955 4a21.819 21.819 0 0 1 12.091 5.019L63.6 96.927zm-1.955 43.749A21.947 21.947 0 0 1 39.816 103.6h21.832a1.949 1.949 0 0 0 1.382-.572L78.46 87.6a21.907 21.907 0 0 1-16.813 35.965z" class="cls-1" data-name="Path 36664" transform="translate(-35.819 -75.819)"/>
        </g>
    </g>
    <g id="Group_5497" data-name="Group 5497" transform="translate(29.979 61.597)">
        <g id="Group_5496" data-name="Group 5496">
            <path id="Path_36665" d="M209.471 315.605a5.866 5.866 0 0 0-5.4 8.152L192.8 335.023a5.856 5.856 0 0 0-5.065-.026l-7.481-7.481a5.866 5.866 0 1 0-10.788.321l-7.175 7.175a5.867 5.867 0 1 0 2.769 2.762l7.135-7.135a5.847 5.847 0 0 0 5.493-.16l7.27 7.27a5.867 5.867 0 1 0 10.591.056l11.16-11.16a5.865 5.865 0 1 0 2.76-11.041zm-49.7 26.658a1.955 1.955 0 1 1 1.353-3.364l.023.025.029.026a1.953 1.953 0 0 1-1.4 3.313zm15.023-14.926a1.955 1.955 0 1 1 1.955-1.955 1.958 1.958 0 0 1-1.955 1.955zm15.448 14.918a1.955 1.955 0 1 1 1.958-1.955 1.958 1.958 0 0 1-1.958 1.955zm19.228-18.829a1.955 1.955 0 1 1 1.955-1.955 1.958 1.958 0 0 1-1.955 1.955z" class="cls-1" data-name="Path 36665" transform="translate(-153.905 -315.605)"/>
        </g>
    </g>
    <g id="Group_5499" data-name="Group 5499" transform="translate(63.525 45.896)">
        <g id="Group_5498" data-name="Group 5498">
            <path id="Path_36666" d="M337.587 235h-10.32a1.955 1.955 0 1 0 0 3.911h10.32a1.955 1.955 0 1 0 0-3.911z" class="cls-1" data-name="Path 36666" transform="translate(-325.311 -235)"/>
        </g>
    </g>
    <g id="Group_5501" data-name="Group 5501" transform="translate(82.718 45.896)">
        <g id="Group_5500" data-name="Group 5500">
            <path id="Path_36667" d="M426.958 235.573a1.954 1.954 0 1 0 .573 1.382 1.969 1.969 0 0 0-.573-1.382z" class="cls-1" data-name="Path 36667" transform="translate(-423.62 -235)"/>
        </g>
    </g>
    <g id="Group_5503" data-name="Group 5503" transform="translate(63.495 27.147)">
        <g id="Group_5502" data-name="Group 5502">
            <path id="Path_36668" d="M351.152 139h-23.886a1.955 1.955 0 1 0 0 3.911h23.886a1.955 1.955 0 1 0 0-3.911z" class="cls-1" data-name="Path 36668" transform="translate(-325.311 -139)"/>
        </g>
    </g>
    <g id="Group_5505" data-name="Group 5505" transform="translate(63.495 36.522)">
        <g id="Group_5504" data-name="Group 5504">
            <path id="Path_36669" d="M351.152 187h-23.886a1.955 1.955 0 1 0 0 3.911h23.886a1.955 1.955 0 1 0 0-3.911z" class="cls-1" data-name="Path 36669" transform="translate(-325.311 -187)"/>
        </g>
    </g>
</svg>
