<svg xmlns="http://www.w3.org/2000/svg" width="79.993" height="100" viewBox="0 0 79.993 100">
    <defs>
        <style>
            .cls-1{fill:#3939f8}
        </style>
    </defs>
    <g id="clipboard_1_" data-name="clipboard (1)" transform="translate(-.023)">
        <path id="Path_36579" d="M10.022 100h59.995a10.01 10.01 0 0 0 10-10V20.007a10.01 10.01 0 0 0-10-10h-11.3a4.972 4.972 0 0 0-3.7-1.666h-5.136a10 10 0 0 0-19.722 0h-5.138a4.973 4.973 0 0 0-3.7 1.666h-11.3a10.009 10.009 0 0 0-10 10V90a10.009 10.009 0 0 0 10.001 10zm59.995-25H58.352a3.333 3.333 0 0 0-3.333 3.333V90h-43.33a1.667 1.667 0 0 1-1.667-1.667V21.674a1.667 1.667 0 0 1 1.667-1.667h8.332a5 5 0 0 0 5 5h30a5 5 0 0 0 5-5h8.333a1.666 1.666 0 0 1 1.666 1.667zm-2.357 3.335l-9.309 9.309v-9.309zm-42.639-66.66h6.666a1.667 1.667 0 0 0 1.667-1.667 6.666 6.666 0 1 1 13.332 0 1.666 1.666 0 0 0 1.666 1.667h6.667a1.666 1.666 0 0 1 1.666 1.666v6.666a1.666 1.666 0 0 1-1.666 1.667h-30a1.667 1.667 0 0 1-1.667-1.667v-6.666a1.666 1.666 0 0 1 1.669-1.666zM3.356 20.007a6.666 6.666 0 0 1 6.666-6.666h10v3.333h-8.333a5 5 0 0 0-5 5v66.66a5 5 0 0 0 5 5H55.3a4.979 4.979 0 0 0 2-.426c.031-.012.056-.032.086-.045a5.007 5.007 0 0 0 1.445-1l13.051-13.046a4.989 4.989 0 0 0 .988-1.436c.017-.035.039-.063.052-.1a4.971 4.971 0 0 0 .425-2V21.674a5 5 0 0 0-5-5h-8.329v-3.333h10a6.666 6.666 0 0 1 6.666 6.666V90a6.666 6.666 0 0 1-6.666 6.666H10.022A6.666 6.666 0 0 1 3.356 90zm0 0" class="cls-1" data-name="Path 36579"/>
        <path id="Path_36580" d="M155.306 80.209h16.809a1.681 1.681 0 1 0 0-3.362h-16.809a1.681 1.681 0 0 0 0 3.362zm0 0" class="cls-1" data-name="Path 36580" transform="translate(-123.69 -61.71)"/>
        <path id="Path_36581" d="M83.417 180.8a1.681 1.681 0 0 0-1.681 1.68v1.681H71.651v-10.084h5.043a1.681 1.681 0 0 0 0-3.362h-5.043a3.362 3.362 0 0 0-3.362 3.362v10.085a3.362 3.362 0 0 0 3.362 3.362h10.085a3.362 3.362 0 0 0 3.362-3.362v-1.682a1.681 1.681 0 0 0-1.681-1.68zm0 0" class="cls-1" data-name="Path 36581" transform="translate(-54.964 -137.433)"/>
        <path id="Path_36582" d="M81.736 290.18H71.651a3.362 3.362 0 0 0-3.362 3.362v10.085a3.362 3.362 0 0 0 3.362 3.362h10.085a3.362 3.362 0 0 0 3.362-3.362v-10.086a3.362 3.362 0 0 0-3.362-3.361zm-10.085 13.447v-10.086h10.085v10.085zm0 0" class="cls-1" data-name="Path 36582" transform="translate(-54.964 -233.607)"/>
        <path id="Path_36583" d="M172.372 191.143h8.4a1.681 1.681 0 0 0 0-3.362h-8.4a1.681 1.681 0 0 0 0 3.362zm0 0" class="cls-1" data-name="Path 36583" transform="translate(-137.386 -151.12)"/>
        <path id="Path_36584" d="M264.3 187.781h-15.13a1.681 1.681 0 1 0 0 3.362h15.13a1.681 1.681 0 0 0 0-3.362zm0 0" class="cls-1" data-name="Path 36584" transform="translate(-199.26 -151.12)"/>
        <path id="Path_36585" d="M172.372 225.276h16.808a1.681 1.681 0 1 0 0-3.362h-16.808a1.681 1.681 0 0 0 0 3.362zm0 0" class="cls-1" data-name="Path 36585" transform="translate(-137.433 -178.588)"/>
        <path id="Path_36586" d="M298.561 221.914h-6.723a1.681 1.681 0 1 0 0 3.362h6.723a1.681 1.681 0 0 0 0-3.362zm0 0" class="cls-1" data-name="Path 36586" transform="translate(-233.541 -178.588)"/>
        <path id="Path_36587" d="M172.372 310.608h8.4a1.681 1.681 0 0 0 0-3.362h-8.4a1.681 1.681 0 0 0 0 3.362zm0 0" class="cls-1" data-name="Path 36587" transform="translate(-137.386 -247.26)"/>
        <path id="Path_36588" d="M264.3 307.246h-15.13a1.681 1.681 0 1 0 0 3.362h15.13a1.681 1.681 0 0 0 0-3.362zm0 0" class="cls-1" data-name="Path 36588" transform="translate(-199.26 -247.26)"/>
        <path id="Path_36589" d="M189.18 341.379h-16.808a1.681 1.681 0 0 0 0 3.362h16.808a1.681 1.681 0 1 0 0-3.362zm0 0" class="cls-1" data-name="Path 36589" transform="translate(-137.433 -274.729)"/>
        <path id="Path_36590" d="M298.561 341.379h-6.723a1.681 1.681 0 1 0 0 3.362h6.723a1.681 1.681 0 0 0 0-3.362zm0 0" class="cls-1" data-name="Path 36590" transform="translate(-233.541 -274.729)"/>
        <path id="Path_36591" d="M106.055 154.158L98.8 164.309l-1.958-1.958a1.681 1.681 0 0 0-2.377 2.377l3.362 3.362a1.68 1.68 0 0 0 1.188.492h.138a1.679 1.679 0 0 0 1.228-.7l8.4-11.766a1.681 1.681 0 1 0-2.733-1.954zm0 0" class="cls-1" data-name="Path 36591" transform="translate(-75.656 -123.493)"/>
    </g>
</svg>
