<svg xmlns="http://www.w3.org/2000/svg" id="company_1_" width="100" height="100" data-name="company (1)" viewBox="0 0 100 100">
    <defs>
        <style>
            .cls-1{fill:#3939f8}
        </style>
    </defs>
    <path id="Path_36592" d="M64 304h3.258v3.258H64zm0 0" class="cls-1" data-name="Path 36592" transform="translate(-50.97 -242.73)"/>
    <path id="Path_36593" d="M112 304h3.258v3.258H112zm0 0" class="cls-1" data-name="Path 36593" transform="translate(-89.427 -242.73)"/>
    <path id="Path_36594" d="M160 304h3.258v3.258H160zm0 0" class="cls-1" data-name="Path 36594" transform="translate(-127.753 -242.73)"/>
    <path id="Path_36595" d="M96.774 62.9h-12.9v-6.448h9.677a6.452 6.452 0 0 0 1.508-12.726 9.7 9.7 0 0 0-9.573-8.242 9.42 9.42 0 0 0-1.613.155V9.677h-6.454V0H22.581v3.381a9.566 9.566 0 0 0-3.226 1.169 9.515 9.515 0 0 0-4.839-1.324 9.7 9.7 0 0 0-9.573 8.242 6.452 6.452 0 0 0 1.509 12.726h9.677v30.645H3.226v35.484H0V100h100v-9.677h-3.226zm-4.839-17.739v1.613h1.613a3.226 3.226 0 1 1 0 6.452H67.742a3.226 3.226 0 1 1 0-6.452h1.613v-1.613a6.458 6.458 0 0 1 6.452-6.452 6.391 6.391 0 0 1 3.866 1.322l.973.734.973-.734a6.391 6.391 0 0 1 3.866-1.322 6.458 6.458 0 0 1 6.45 6.452zm-11.29-8.354a9.515 9.515 0 0 0-4.839-1.324 9.688 9.688 0 0 0-9.114 6.452H54.839v3.226h8.65a6.443 6.443 0 0 0 4.254 11.29h12.9V62.9h-29.03v-50h29.032zm-6.451-27.13H51.613V3.226h22.581zM48.387 3.226v6.451H25.806V3.226zM6.452 20.968a3.226 3.226 0 1 1 0-6.452h1.613V12.9a6.458 6.458 0 0 1 6.452-6.452 6.391 6.391 0 0 1 3.866 1.322l.973.734.973-.734a6.519 6.519 0 0 1 2.253-1.088v2.995h-6.453v11.29zm12.9-8.065h29.035v50h-3.226v-8.064H19.355zm-12.9 45.162h35.483v14.516H87.1v-3.226H45.161v-3.226h48.387v3.226h-3.225v3.226h3.226v17.742h-3.226V75.806h-12.9v14.517h-3.229V75.806H61.29v14.517h-3.225V75.806h-12.9v14.517h-9.681V67.742h-3.226v22.581h-6.452V67.742h-3.225v22.581h-6.452V67.742H12.9v22.581H6.452zM87.1 90.323h-6.455V79.032H87.1zm-16.129 0h-6.455V79.032h6.452zm-16.129 0h-6.455V79.032h6.452zm41.935 6.452H3.226v-3.227h93.548zm0 0" class="cls-1" data-name="Path 36595"/>
    <path id="Path_36596" d="M112 80h22.8v3.258H112zm0 0" class="cls-1" data-name="Path 36596" transform="translate(-89.484 -63.712)"/>
    <path id="Path_36597" d="M112 144h22.8v3.258H112zm0 0" class="cls-1" data-name="Path 36597" transform="translate(-89.484 -114.977)"/>
    <path id="Path_36598" d="M112 208h22.8v3.258H112zm0 0" class="cls-1" data-name="Path 36598" transform="translate(-89.484 -166.078)"/>
    <path id="Path_36599" d="M128 112h3.258v3.258H128zm0 0" class="cls-1" data-name="Path 36599" transform="translate(-102.202 -89.427)"/>
    <path id="Path_36600" d="M160 112h3.258v3.258H160zm0 0" class="cls-1" data-name="Path 36600" transform="translate(-127.753 -89.427)"/>
    <path id="Path_36601" d="M192 112h3.258v3.258H192zm0 0" class="cls-1" data-name="Path 36601" transform="translate(-153.303 -89.427)"/>
    <path id="Path_36602" d="M128 176h3.258v3.258H128zm0 0" class="cls-1" data-name="Path 36602" transform="translate(-102.202 -140.528)"/>
    <path id="Path_36603" d="M160 176h3.258v3.258H160zm0 0" class="cls-1" data-name="Path 36603" transform="translate(-127.753 -140.528)"/>
    <path id="Path_36604" d="M192 176h3.258v3.258H192zm0 0" class="cls-1" data-name="Path 36604" transform="translate(-153.303 -140.528)"/>
    <path id="Path_36605" d="M128 240h3.258v3.258H128zm0 0" class="cls-1" data-name="Path 36605" transform="translate(-102.202 -191.629)"/>
    <path id="Path_36606" d="M160 240h3.258v3.258H160zm0 0" class="cls-1" data-name="Path 36606" transform="translate(-127.753 -191.629)"/>
    <path id="Path_36607" d="M192 240h3.258v3.258H192zm0 0" class="cls-1" data-name="Path 36607" transform="translate(-153.303 -191.629)"/>
    <path id="Path_36608" d="M272 80h22.8v3.258H272zm0 0" class="cls-1" data-name="Path 36608" transform="translate(-217.319 -63.712)"/>
    <path id="Path_36609" d="M272 144h22.8v3.258H272zm0 0" class="cls-1" data-name="Path 36609" transform="translate(-217.319 -114.977)"/>
    <path id="Path_36610" d="M288 112h3.258v3.258H288zm0 0" class="cls-1" data-name="Path 36610" transform="translate(-229.955 -89.427)"/>
    <path id="Path_36611" d="M320 112h3.258v3.258H320zm0 0" class="cls-1" data-name="Path 36611" transform="translate(-255.505 -89.427)"/>
    <path id="Path_36612" d="M352 112h3.258v3.258H352zm0 0" class="cls-1" data-name="Path 36612" transform="translate(-281.056 -89.427)"/>
    <path id="Path_36613" d="M288 176h3.258v3.258H288zm0 0" class="cls-1" data-name="Path 36613" transform="translate(-229.955 -140.528)"/>
    <path id="Path_36614" d="M320 176h3.258v3.258H320zm0 0" class="cls-1" data-name="Path 36614" transform="translate(-255.505 -140.528)"/>
</svg>
