<svg xmlns="http://www.w3.org/2000/svg" width="105.618" height="100" viewBox="0 0 105.618 100">
    <defs>
        <style>
            .cls-1{fill:#3939f8}
        </style>
    </defs>
    <g id="desktop" transform="translate(0 -12.5)">
        <g id="Group_5464" data-name="Group 5464" transform="translate(0 12.5)">
            <g id="Group_5463" data-name="Group 5463">
                <path id="Path_36556" d="M97.191 12.5H8.427A8.437 8.437 0 0 0 0 20.927v67.416a8.437 8.437 0 0 0 8.427 8.427h32.584v12.36h-11.8a1.685 1.685 0 0 0 0 3.371H76.4a1.685 1.685 0 0 0 0-3.371H64.6V96.77h32.591a8.437 8.437 0 0 0 8.427-8.427V20.927a8.437 8.437 0 0 0-8.427-8.427zm-35.955 96.629H44.382V96.77h16.854zm41.011-20.787a5.062 5.062 0 0 1-5.056 5.058H8.427a5.062 5.062 0 0 1-5.056-5.056v-5.057h98.876zm0-8.427H3.371V20.927a5.062 5.062 0 0 1 5.056-5.056h88.764a5.062 5.062 0 0 1 5.056 5.056z" class="cls-1" data-name="Path 36556" transform="translate(0 -12.5)"/>
                <path id="Path_36557" d="M120.652 42.5H31.689A1.675 1.675 0 0 0 30 44.16v53.106a1.675 1.675 0 0 0 1.689 1.66h73.2a1.66 1.66 0 1 0 0-3.319H33.378V45.819h85.585v49.787h-7.32a1.66 1.66 0 1 0 0 3.319h9.009a1.675 1.675 0 0 0 1.689-1.66V44.16a1.675 1.675 0 0 0-1.689-1.66z" class="cls-1" data-name="Path 36557" transform="translate(-23.362 -35.862)"/>
            </g>
        </g>
    </g>
</svg>
