<svg xmlns="http://www.w3.org/2000/svg" width="95" height="95" viewBox="0 0 95 95">
    <defs>
        <style>
            .cls-1,.cls-2{fill:#fff}.cls-1{opacity:.25}
        </style>
    </defs>
    <g id="Group_5440" data-name="Group 5440" transform="translate(-151 -1314)">
        <circle id="Ellipse_2598" cx="47.5" cy="47.5" r="47.5" class="cls-1" data-name="Ellipse 2598" transform="translate(151 1314)"/>
        <g id="algorithm_1_" data-name="algorithm (1)" transform="translate(176 1339)">
            <path id="Path_35866" d="M187.734 393.277a.742.742 0 0 0 .742.742h11.875a.742.742 0 0 0 0-1.484h-11.875a.742.742 0 0 0-.742.742zm0 0" class="cls-2" data-name="Path 35866" transform="translate(-171.491 -358.522)"/>
            <path id="Path_35867" d="M187.734 427.41a.742.742 0 0 0 .742.742h19.3a.742.742 0 1 0 0-1.484h-19.3a.742.742 0 0 0-.742.742zm0 0" class="cls-2" data-name="Path 35867" transform="translate(-171.517 -389.72)"/>
            <path id="Path_35868" d="M195.156 460.8h-6.68a.742.742 0 0 0 0 1.484h6.68a.742.742 0 1 0 0-1.484zm0 0" class="cls-2" data-name="Path 35868" transform="translate(-171.479 -420.884)"/>
            <path id="Path_35869" d="M495.676 254.781a.742.742 0 0 0-.742.742v1.484a.742.742 0 1 0 1.484 0v-1.484a.742.742 0 0 0-.742-.742zm0 0" class="cls-2" data-name="Path 35869" transform="translate(-452.048 -232.708)"/>
            <path id="Path_35870" d="M420.359 221.867h-1.484a.742.742 0 1 0 0 1.484h1.484a.742.742 0 0 0 0-1.484zm0 0" class="cls-2" data-name="Path 35870" transform="translate(-381.927 -202.643)"/>
            <path id="Path_35871" d="M469.332 222.609a.742.742 0 0 0 .742.742h.742a.738.738 0 0 1 .356.091.742.742 0 0 0 .71-1.3 2.237 2.237 0 0 0-1.067-.272h-.742a.742.742 0 0 0-.741.739zm0 0" class="cls-2" data-name="Path 35871" transform="translate(-428.673 -202.643)"/>
            <path id="Path_35872" d="M489.436 408.383a.742.742 0 0 0-.742.742v.106a.734.734 0 0 1-.3.594.743.743 0 0 0 .89 1.189 2.238 2.238 0 0 0 .891-1.783v-.106a.742.742 0 0 0-.739-.742zm0 0" class="cls-2" data-name="Path 35872" transform="translate(-445.808 -373.025)"/>
            <path id="Path_35873" d="M495.676 305.984a.742.742 0 0 0-.742.742v1.484a.742.742 0 1 0 1.484 0v-1.484a.742.742 0 0 0-.742-.742zm0 0" class="cls-2" data-name="Path 35873" transform="translate(-452.048 -279.475)"/>
            <path id="Path_35874" d="M495.676 357.184a.742.742 0 0 0-.742.742v1.484a.742.742 0 1 0 1.484 0v-1.484a.742.742 0 0 0-.742-.742zm0 0" class="cls-2" data-name="Path 35874" transform="translate(-452.048 -326.238)"/>
            <path id="Path_35875" d="M404.778 93.867a3.711 3.711 0 0 0-.742 7.347v1.559a.742.742 0 1 0 1.484 0v-1.559a3.711 3.711 0 0 0-.742-7.347zm0 5.937A2.227 2.227 0 1 1 407 97.578a2.226 2.226 0 0 1-2.222 2.222zm0 0" class="cls-2" data-name="Path 35875" transform="translate(-366.345 -85.741)"/>
            <path id="Path_35876" d="M35.617 34.875a.742.742 0 1 1-.742-.742.742.742 0 0 1 .742.742zm0 0" class="cls-2" data-name="Path 35876" transform="translate(-31.164 -31.164)"/>
            <path id="Path_35877" d="M69.75 34.875a.742.742 0 1 1-.742-.742.742.742 0 0 1 .742.742zm0 0" class="cls-2" data-name="Path 35877" transform="translate(-62.328 -31.164)"/>
            <path id="Path_35878" d="M103.883 34.875a.742.742 0 1 1-.742-.742.742.742 0 0 1 .742.742zm0 0" class="cls-2" data-name="Path 35878" transform="translate(-93.526 -31.164)"/>
            <path id="Path_35879" d="M2.218 38.454h11.089v4.437a1.48 1.48 0 0 0 1.479 1.479h23.656a1.481 1.481 0 0 0 1.479-1.479v-4.437h.211a.739.739 0 0 0 0-1.479h-.211v-4.437a1.481 1.481 0 0 0-1.479-1.479H27.353V26.9l5.506-6.2h1.147a.739.739 0 0 0 0-1.479h-1.147l-5.506-6.2V2.219A2.221 2.221 0 0 0 25.135 0H2.218A2.221 2.221 0 0 0 0 2.219v34.016a2.221 2.221 0 0 0 2.218 2.219zm36.225-.743v5.18H14.786V32.538h23.656zm-23.657-6.652a1.481 1.481 0 0 0-1.479 1.479v4.437H2.218a.74.74 0 0 1-.739-.74V7.395h24.4v5.635l-5.206 5.859-1.447-1.447v-5.61a1.481 1.481 0 0 0-1.479-1.479h-1.483a1.481 1.481 0 0 0-1.479 1.479v5.176h-1.478V14.79a1.481 1.481 0 0 0-1.479-1.479H10.35a1.481 1.481 0 0 0-1.479 1.479v2.218H7.393v-6.655a1.481 1.481 0 0 0-1.479-1.479H4.436a1.481 1.481 0 0 0-1.479 1.479v7.4a.739.739 0 0 0 .739.739h14.48l1.989 1.989 5.71 6.426v4.156zm2.957-14.05h-1.479v-5.177h1.479zm-5.914 0H10.35V14.79h1.479zm-5.914 0H4.436v-6.656h1.478zm20.7 8.5l-4.925-5.543 4.925-5.543 4.925 5.543zM1.479 2.219a.74.74 0 0 1 .739-.74h22.917a.74.74 0 0 1 .739.74v3.7H1.479zm0 0" class="cls-2" data-name="Path 35879"/>
            <path id="Path_35880" d="M42.3 392.535h-7.425a.742.742 0 1 0 0 1.484H42.3a.742.742 0 1 0 0-1.484zm0 0" class="cls-2" data-name="Path 35880" transform="translate(-31.164 -358.522)"/>
            <path id="Path_35881" d="M34.875 359.883h3.711a.742.742 0 1 0 0-1.484h-3.711a.742.742 0 1 0 0 1.484zm0 0" class="cls-2" data-name="Path 35881" transform="translate(-31.164 -327.343)"/>
            <path id="Path_35882" d="M46.008 324.266H34.875a.742.742 0 1 0 0 1.484h11.133a.742.742 0 0 0 0-1.484zm0 0" class="cls-2" data-name="Path 35882" transform="translate(-31.164 -296.168)"/>
            <path id="Path_35883" d="M48.977 290.133h-14.1a.742.742 0 1 0 0 1.484h14.1a.742.742 0 0 0 0-1.484zm0 0" class="cls-2" data-name="Path 35883" transform="translate(-31.164 -264.993)"/>
            <path id="Path_35884" d="M50.461 256H34.875a.742.742 0 1 0 0 1.484h15.586a.742.742 0 0 0 0-1.484zm0 0" class="cls-2" data-name="Path 35884" transform="translate(-31.164 -233.818)"/>
        </g>
    </g>
</svg>
