<svg xmlns="http://www.w3.org/2000/svg" width="99.993" height="100" viewBox="0 0 99.993 100">
    <defs>
        <style>
            .cls-1{fill:#3939f8}
        </style>
    </defs>
    <path id="layers" d="M98.337 46.506l-16.059-8.029 16.059-8.03a3.909 3.909 0 0 0 0-6.988L52.243.412a3.911 3.911 0 0 0-3.494 0L2.655 23.459a3.909 3.909 0 0 0 0 6.988l16.059 8.03-16.059 8.029a3.909 3.909 0 0 0 0 6.988l16.059 8.03-16.059 8.029a3.909 3.909 0 0 0 0 6.988l46.093 23.047a3.908 3.908 0 0 0 3.494 0l46.095-23.047a3.909 3.909 0 0 0 0-6.988l-16.059-8.029 16.059-8.03a3.909 3.909 0 0 0 0-6.988zM50.5 8.273l37.359 18.68L50.5 45.632 13.137 26.953zm37.355 64.774L50.5 91.726 13.137 73.047l14.312-7.156 21.3 10.65a3.908 3.908 0 0 0 3.494 0l21.3-10.65zM50.5 68.679L13.137 50l14.312-7.156 21.3 10.65a3.908 3.908 0 0 0 3.494 0l21.3-10.65L87.855 50zm0 0" class="cls-1" transform="translate(-.499)"/>
</svg>
