<svg xmlns="http://www.w3.org/2000/svg" id="noun_Chat_Icon_423449" width="42.834" height="36.219" data-name="noun_Chat Icon_423449" viewBox="0 0 42.834 36.219">
    <defs>
        <style>
            .cls-1{fill:#fff}
        </style>
    </defs>
    <path id="Path_34320" d="M43.5 20.111H29.273v-3.379a3.311 3.311 0 0 0-3.332-3.332H8.332A3.311 3.311 0 0 0 5 16.732v16.42a1.308 1.308 0 0 0 .571 1.048 1.317 1.317 0 0 0 .619.143 1.131 1.131 0 0 0 .571-.143l3.57-2.047h3.141V42.1a4.347 4.347 0 0 0 4.328 4.33h22.94l5.331 3.046a1.267 1.267 0 0 0 .571.143 1.466 1.466 0 0 0 .619-.143 1.142 1.142 0 0 0 .571-1.047V24.394a4.337 4.337 0 0 0-4.332-4.283zm-30.028 4.283v5.378h-3.427a1.131 1.131 0 0 0-.571.143L7.38 31.1V16.732a.955.955 0 0 1 .952-.952h17.61a.955.955 0 0 1 .952.952v3.379h-9.139a4.3 4.3 0 0 0-4.283 4.283zm31.983 21.989l-3.808-2.189a1.267 1.267 0 0 0-.571-.143H17.755A1.96 1.96 0 0 1 15.8 42.1V24.4a1.96 1.96 0 0 1 1.951-1.951H43.5a1.96 1.96 0 0 1 1.951 1.951v21.983z" class="cls-1" data-name="Path 34320" transform="translate(-5 -13.4)"/>
    <path id="Path_34321" d="M56.781 45.4H40.79a1.19 1.19 0 1 0 0 2.38h15.991a1.19 1.19 0 1 0 0-2.38z" class="cls-1" data-name="Path 34321" transform="translate(-23.133 -30.17)"/>
    <path id="Path_34322" d="M56.781 60.9H40.79a1.19 1.19 0 1 0 0 2.38h15.991a1.19 1.19 0 1 0 0-2.38z" class="cls-1" data-name="Path 34322" transform="translate(-23.133 -38.293)"/>
</svg>
