<svg xmlns="http://www.w3.org/2000/svg" width="57.43" height="100" viewBox="0 0 57.43 100">
    <defs>
        <style>
            .cls-1{fill:#3939f8}
        </style>
    </defs>
    <g id="noun_Mobile_2028407" transform="translate(-113 -7)">
        <g id="Group_5465" data-name="Group 5465" transform="translate(113 7)">
            <path id="Path_36558" d="M170.43 17.442A10.447 10.447 0 0 0 159.988 7h-36.546A10.447 10.447 0 0 0 113 17.442v79.116A10.447 10.447 0 0 0 123.442 107h36.546a10.447 10.447 0 0 0 10.442-10.442zm-52.61 7.631h47.79v58.433h-47.791zm42.189 77.108h-36.587a5.656 5.656 0 0 1-5.6-5.663v-8.193h47.788v8.193a5.656 5.656 0 0 1-5.602 5.663zm5.6-84.7v2.771h-47.79v-2.77a5.656 5.656 0 0 1 5.6-5.663h36.586a5.656 5.656 0 0 1 5.605 5.663z" class="cls-1" data-name="Path 36558" transform="translate(-113 -7)"/>
            <path id="Path_36559" d="M231.82 435h-9.808a2.412 2.412 0 1 0 0 4.824h9.808a2.412 2.412 0 1 0 0-4.824z" class="cls-1" data-name="Path 36559" transform="translate(-198.201 -349.069)"/>
        </g>
    </g>
</svg>
