<svg xmlns="http://www.w3.org/2000/svg" width="17.153" height="17.153" viewBox="0 0 17.153 17.153">
    <defs>
        <style>
            .cls-1{fill:#fff}
        </style>
    </defs>
    <g id="noun_copyright_60824" transform="translate(-11.996 -25)">
        <g id="Group_119" data-name="Group 119" transform="translate(11.996 25)">
            <path id="Path_460" d="M33.576 25a8.576 8.576 0 1 0 8.576 8.576A8.584 8.584 0 0 0 33.576 25zm0 16A7.421 7.421 0 1 1 41 33.576 7.43 7.43 0 0 1 33.576 41z" class="cls-1" data-name="Path 460" transform="translate(-25 -25)"/>
            <path id="Path_461" d="M127.08 117.04a3.472 3.472 0 0 1 2.549 1.128.661.661 0 0 0 .967.008.752.752 0 0 0 .007-1.019 4.8 4.8 0 0 0-3.523-1.556 5.326 5.326 0 0 0 0 10.63 4.79 4.79 0 0 0 3.335-1.37.747.747 0 0 0 .044-1.016.658.658 0 0 0-.963-.047 3.477 3.477 0 0 1-2.413.992 3.885 3.885 0 0 1 0-7.751z" class="cls-1" data-name="Path 461" transform="translate(-118.268 -112.258)"/>
        </g>
    </g>
</svg>
