<svg xmlns="http://www.w3.org/2000/svg" width="100" height="100" viewBox="0 0 100 100">
    <defs>
        <style>
            .cls-1{fill:#3939f8}
        </style>
    </defs>
    <g id="noun_code_2597540_1_" data-name="noun_code_2597540 (1)" transform="translate(-16 -16)">
        <g id="Group_5486" data-name="Group 5486" transform="translate(16 16)">
            <g id="Group_5485" data-name="Group 5485">
                <g id="Group_5484" data-name="Group 5484">
                    <g id="Group_5467" data-name="Group 5467">
                        <path id="Path_36560" d="M113.917 116H18.083A2.083 2.083 0 0 1 16 113.917V18.083A2.083 2.083 0 0 1 18.083 16h95.833A2.083 2.083 0 0 1 116 18.083v95.833a2.084 2.084 0 0 1-2.083 2.084zm-93.75-4.167h91.667V20.167H20.167z" class="cls-1" data-name="Path 36560" transform="translate(-16 -16)"/>
                    </g>
                    <g id="Group_5468" data-name="Group 5468" transform="translate(0 16.663)">
                        <path id="Path_36561" d="M113.917 100.188H18.083a2.094 2.094 0 0 1 0-4.188h95.833a2.094 2.094 0 0 1 0 4.188z" class="cls-1" data-name="Path 36561" transform="translate(-16 -96)"/>
                    </g>
                    <g id="Group_5469" data-name="Group 5469" transform="translate(29.16)">
                        <path id="Path_36562" d="M158.094 36.941A2.094 2.094 0 0 1 156 34.847V18.094a2.094 2.094 0 1 1 4.188 0v16.753a2.094 2.094 0 0 1-2.094 2.094z" class="cls-1" data-name="Path 36562" transform="translate(-156 -16)"/>
                    </g>
                    <g id="Group_5470" data-name="Group 5470" transform="translate(51.835 8.377)">
                        <path id="Path_36563" d="M312.071 60.188h-43.977a2.094 2.094 0 0 1 0-4.188h43.977a2.094 2.094 0 0 1 0 4.188z" class="cls-1" data-name="Path 36563" transform="translate(-266 -56)"/>
                    </g>
                    <g id="Group_5471" data-name="Group 5471" transform="translate(8.377 24.985)">
                        <path id="Path_36564" d="M58.094 146.471A2.094 2.094 0 0 1 56 144.377v-6.282A2.094 2.094 0 0 1 58.094 136h6.282a2.094 2.094 0 1 1 0 4.188h-4.188v4.188a2.094 2.094 0 0 1-2.094 2.095z" class="cls-1" data-name="Path 36564" transform="translate(-56 -136)"/>
                    </g>
                    <g id="Group_5472" data-name="Group 5472" transform="translate(8.377 81.153)">
                        <path id="Path_36565" d="M64.377 416.471h-6.283A2.094 2.094 0 0 1 56 414.376v-6.282a2.094 2.094 0 0 1 4.188 0v4.188h4.188a2.094 2.094 0 0 1 0 4.188z" class="cls-1" data-name="Path 36565" transform="translate(-56 -406)"/>
                    </g>
                    <g id="Group_5473" data-name="Group 5473" transform="translate(81.153 24.985)">
                        <path id="Path_36566" d="M414.376 146.471a2.094 2.094 0 0 1-2.094-2.094v-4.188h-4.188a2.094 2.094 0 0 1 0-4.188h6.282a2.094 2.094 0 0 1 2.094 2.094v6.282a2.094 2.094 0 0 1-2.094 2.094z" class="cls-1" data-name="Path 36566" transform="translate(-406 -136)"/>
                    </g>
                    <g id="Group_5474" data-name="Group 5474" transform="translate(81.153 81.153)">
                        <path id="Path_36567" d="M414.376 416.471h-6.282a2.094 2.094 0 0 1 0-4.188h4.188v-4.188a2.094 2.094 0 0 1 4.188 0v6.282a2.094 2.094 0 0 1-2.094 2.094z" class="cls-1" data-name="Path 36567" transform="translate(-406 -406)"/>
                    </g>
                    <g id="Group_5475" data-name="Group 5475" transform="translate(14.659 41.595)">
                        <path id="Path_36568" d="M154.6 241.13H88.079A2.087 2.087 0 0 1 86 239.035v-20.941A2.087 2.087 0 0 1 88.079 216H154.6a2.087 2.087 0 0 1 2.079 2.094v20.941a2.087 2.087 0 0 1-2.079 2.095zm-64.446-4.188h62.367v-16.754H90.158z" class="cls-1" data-name="Path 36568" transform="translate(-86 -216)"/>
                    </g>
                    <g id="Group_5476" data-name="Group 5476" transform="translate(20.821 47.881)">
                        <path id="Path_36569" d="M124.377 258.565h-6.282a2.094 2.094 0 0 1-2.095-2.094v-8.377a2.094 2.094 0 0 1 2.094-2.094h6.282a2.094 2.094 0 0 1 2.094 2.094v8.377a2.094 2.094 0 0 1-2.093 2.094zm-4.188-4.188h2.094v-4.188h-2.094z" class="cls-1" data-name="Path 36569" transform="translate(-116 -246)"/>
                    </g>
                    <g id="Group_5477" data-name="Group 5477" transform="translate(33.313 47.881)">
                        <path id="Path_36570" d="M184.376 258.565h-6.282a2.094 2.094 0 0 1-2.094-2.094v-8.377a2.094 2.094 0 0 1 2.094-2.094h6.282a2.094 2.094 0 0 1 2.094 2.094v8.377a2.094 2.094 0 0 1-2.094 2.094zm-4.188-4.188h2.094v-4.188h-2.094z" class="cls-1" data-name="Path 36570" transform="translate(-176 -246)"/>
                    </g>
                    <g id="Group_5478" data-name="Group 5478" transform="translate(45.806 47.881)">
                        <path id="Path_36571" d="M244.377 258.565h-6.282a2.094 2.094 0 0 1-2.095-2.094v-8.377a2.094 2.094 0 0 1 2.094-2.094h6.282a2.094 2.094 0 0 1 2.094 2.094v8.377a2.094 2.094 0 0 1-2.093 2.094zm-4.188-4.188h2.094v-4.188h-2.094z" class="cls-1" data-name="Path 36571" transform="translate(-236 -246)"/>
                    </g>
                    <g id="Group_5479" data-name="Group 5479" transform="translate(18.728 70.817)">
                        <path id="Path_36572" d="M122.753 360.188h-14.659a2.094 2.094 0 0 1 0-4.188h14.659a2.094 2.094 0 0 1 0 4.188z" class="cls-1" data-name="Path 36572" transform="translate(-106 -356)"/>
                    </g>
                    <g id="Group_5480" data-name="Group 5480" transform="translate(43.724 70.817)">
                        <path id="Path_36573" d="M234.377 360.188h-6.282a2.094 2.094 0 0 1 0-4.188h6.282a2.094 2.094 0 0 1 0 4.188z" class="cls-1" data-name="Path 36573" transform="translate(-226 -356)"/>
                    </g>
                    <g id="Group_5481" data-name="Group 5481" transform="translate(27.051 79.149)">
                        <path id="Path_36574" d="M162.753 400.188h-14.659a2.094 2.094 0 0 1 0-4.188h14.659a2.094 2.094 0 1 1 0 4.188z" class="cls-1" data-name="Path 36574" transform="translate(-146 -396)"/>
                    </g>
                    <g id="Group_5482" data-name="Group 5482" transform="translate(52.052 79.149)">
                        <path id="Path_36575" d="M274.376 400.188h-6.282a2.094 2.094 0 0 1 0-4.188h6.282a2.094 2.094 0 0 1 0 4.188z" class="cls-1" data-name="Path 36575" transform="translate(-266 -396)"/>
                    </g>
                    <g id="Group_5483" data-name="Group 5483" transform="translate(58.243 70.817)">
                        <path id="Path_36576" d="M316.941 360.188h-18.847a2.094 2.094 0 1 1 0-4.188h18.847a2.094 2.094 0 0 1 0 4.188z" class="cls-1" data-name="Path 36576" transform="translate(-296 -356)"/>
                    </g>
                </g>
                <path id="Rectangle_109" d="M0 0h4v4H0z" class="cls-1" data-name="Rectangle 109" transform="translate(8 8)"/>
                <path id="Rectangle_110" d="M0 0h4v5H0z" class="cls-1" data-name="Rectangle 110" transform="translate(58.683 51.718)"/>
                <path id="Rectangle_111" d="M0 0h4v5H0z" class="cls-1" data-name="Rectangle 111" transform="translate(64.651 51.718)"/>
                <path id="Rectangle_112" d="M0 0h4v5H0z" class="cls-1" data-name="Rectangle 112" transform="translate(70.619 51.718)"/>
                <path id="Rectangle_113" d="M0 0h5v4H0z" class="cls-1" data-name="Rectangle 113" transform="translate(14 8)"/>
                <path id="Rectangle_114" d="M0 0h4v4H0z" class="cls-1" data-name="Rectangle 114" transform="translate(20.887 8)"/>
            </g>
        </g>
    </g>
</svg>
