<svg xmlns="http://www.w3.org/2000/svg" id="noun_illustration_373127" width="100" height="100" viewBox="0 0 100 100">
    <defs>
        <style>
            .cls-1{fill:#3939f8}
        </style>
    </defs>
    <path id="Path_36578" d="M0 0v100h100V0zm70.465 30.7l-2.558 7.209-4.651-4.651zm-14.884 4.649l10 10-10.93 31.86-31.4-31.4zm-4.418 48.372l-9.3 9.3H25.349l17.674-17.672zM16.744 49.07l8.14 8.14L6.977 75.116V58.6zM6.977 85.116l22.79-22.79 8.14 8.14-22.326 22.557h-8.6zm86.047 7.907h-41.4l6.976-6.976.93-1.4 20.233-58.6-4.419-4.419L15.581 40.93l-1.4.93-7.204 6.977V6.977h86.046z" class="cls-1" data-name="Path 36578"/>
</svg>
