<svg xmlns="http://www.w3.org/2000/svg" width="87.097" height="100" viewBox="0 0 87.097 100">
    <defs>
        <style>
            .cls-1{fill:#3939f8}
        </style>
    </defs>
    <g id="request-for-proposal" transform="translate(-47 -35)">
        <path id="Path_36618" d="M121.883 135H60.612A1.613 1.613 0 0 1 59 133.387V36.613A1.613 1.613 0 0 1 60.612 35h77.394a1.613 1.613 0 0 1 1.612 1.613v81.073a1.611 1.611 0 0 1-.487 1.155l-16.124 15.7a1.611 1.611 0 0 1-1.124.459zm-59.658-3.226h59L136.394 117V38.226H62.225z" class="cls-1" data-name="Path 36618" transform="translate(-5.522)"/>
        <path id="Path_36619" d="M174.619 204.8a1.62 1.62 0 0 1-1.619-1.62v-15.766a1.619 1.619 0 0 1 1.619-1.619h16.194a1.619 1.619 0 0 1 1.129 2.78l-16.193 15.765a1.618 1.618 0 0 1-1.13.46zm1.619-15.765v10.309l10.59-10.309z" class="cls-1" data-name="Path 36619" transform="translate(-58.336 -69.799)"/>
        <path id="Path_36620" d="M167.768 62.239h-29.15a1.619 1.619 0 1 1 0-3.239h29.15a1.619 1.619 0 1 1 0 3.239z" class="cls-1" data-name="Path 36620" transform="translate(-41.769 -11.045)"/>
        <path id="Path_36621" d="M167.768 80.239h-29.15a1.619 1.619 0 1 1 0-3.239h29.15a1.619 1.619 0 1 1 0 3.239z" class="cls-1" data-name="Path 36621" transform="translate(-41.769 -19.422)"/>
        <g id="Group_5489" data-name="Group 5489" transform="translate(69.319 42.752)">
            <path id="Path_36628" d="M100.335 72.032A11.336 11.336 0 1 1 111.671 60.7a11.348 11.348 0 0 1-11.336 11.332zm0-19.433a8.1 8.1 0 1 0 8.1 8.1 8.106 8.106 0 0 0-8.1-8.099z" class="cls-1" data-name="Path 36628" transform="translate(-88.999 -49.36)"/>
            <path id="Path_36630" d="M167.768 120.082h-29.15a1.619 1.619 0 1 1 0-3.239h29.15a1.619 1.619 0 1 1 0 3.239z" class="cls-1" data-name="Path 36630" transform="translate(-111.088 -80.595)"/>
            <path id="Path_36631" d="M167.768 138.082h-29.15a1.619 1.619 0 1 1 0-3.239h29.15a1.619 1.619 0 1 1 0 3.239z" class="cls-1" data-name="Path 36631" transform="translate(-111.088 -88.926)"/>
            <path id="Path_36632" d="M100.335 129.876a11.336 11.336 0 1 1 11.336-11.336 11.348 11.348 0 0 1-11.336 11.336zm0-19.433a8.1 8.1 0 1 0 8.1 8.1 8.106 8.106 0 0 0-8.1-8.1z" class="cls-1" data-name="Path 36632" transform="translate(-88.999 -76.182)"/>
            <path id="Path_36634" d="M151.574 177.926h-12.956a1.619 1.619 0 1 1 0-3.239h12.956a1.619 1.619 0 1 1 0 3.239z" class="cls-1" data-name="Path 36634" transform="translate(-111.088 -107.369)"/>
            <path id="Path_36635" d="M151.574 195.926h-12.956a1.619 1.619 0 1 1 0-3.239h12.956a1.619 1.619 0 1 1 0 3.239z" class="cls-1" data-name="Path 36635" transform="translate(-111.088 -115.722)"/>
            <path id="Path_36636" d="M100.335 187.719a11.336 11.336 0 1 1 11.336-11.336 11.348 11.348 0 0 1-11.336 11.336zm0-19.433a8.1 8.1 0 1 0 8.1 8.1 8.106 8.106 0 0 0-8.1-8.1z" class="cls-1" data-name="Path 36636" transform="translate(-88.999 -103.003)"/>
        </g>
        <path id="Path_36641" d="M70.336 135h-9.717A1.616 1.616 0 0 1 59 133.387V36.613A1.616 1.616 0 0 1 60.619 35h9.717a1.616 1.616 0 0 1 1.619 1.613v96.774A1.616 1.616 0 0 1 70.336 135zm-8.1-3.226h6.478V38.226h-6.475z" class="cls-1" data-name="Path 36641" transform="translate(-5.522)"/>
        <path id="Path_36642" d="M54.2 55.272v-3.546a1.466 1.466 0 0 1 1.466-1.466h-2.427a3.239 3.239 0 1 0 0 6.478h2.429a1.465 1.465 0 0 1-1.468-1.466z" class="cls-1" data-name="Path 36642" transform="translate(-1.381 -7.023)"/>
        <path id="Path_36643" d="M62.928 50.261H60.5a1.466 1.466 0 0 1 1.466 1.466v3.546a1.466 1.466 0 0 1-1.466 1.466h2.429a3.239 3.239 0 0 0 0-6.478z" class="cls-1" data-name="Path 36643" transform="translate(-6.212 -7.023)"/>
        <path id="Path_36644" d="M60.715 55.272v-3.546a1.466 1.466 0 0 0-2.932 0v3.546a1.466 1.466 0 0 0 2.932 0z" class="cls-1" data-name="Path 36644" transform="translate(-4.962 -7.023)"/>
        <path id="Path_36645" d="M54.2 91.272v-3.546a1.466 1.466 0 0 1 1.466-1.466h-2.427a3.239 3.239 0 0 0 0 6.478h2.429a1.465 1.465 0 0 1-1.468-1.466z" class="cls-1" data-name="Path 36645" transform="translate(-1.381 -23.709)"/>
        <path id="Path_36646" d="M62.928 86.261H60.5a1.466 1.466 0 0 1 1.466 1.466v3.546a1.466 1.466 0 0 1-1.466 1.466h2.429a3.239 3.239 0 0 0 0-6.478z" class="cls-1" data-name="Path 36646" transform="translate(-6.212 -23.709)"/>
        <path id="Path_36647" d="M60.715 91.272v-3.546a1.466 1.466 0 1 0-2.932 0v3.546a1.466 1.466 0 1 0 2.932 0z" class="cls-1" data-name="Path 36647" transform="translate(-4.962 -23.709)"/>
        <path id="Path_36648" d="M54.2 127.272v-3.546a1.466 1.466 0 0 1 1.466-1.466h-2.427a3.239 3.239 0 0 0 0 6.478h2.429a1.465 1.465 0 0 1-1.468-1.466z" class="cls-1" data-name="Path 36648" transform="translate(-1.381 -40.359)"/>
        <path id="Path_36649" d="M62.928 122.261H60.5a1.466 1.466 0 0 1 1.466 1.466v3.546a1.466 1.466 0 0 1-1.466 1.466h2.429a3.239 3.239 0 0 0 0-6.478z" class="cls-1" data-name="Path 36649" transform="translate(-6.212 -40.36)"/>
        <path id="Path_36650" d="M60.715 127.272v-3.546a1.466 1.466 0 0 0-2.932 0v3.546a1.466 1.466 0 1 0 2.932 0z" class="cls-1" data-name="Path 36650" transform="translate(-4.962 -40.359)"/>
        <path id="Path_36651" d="M54.2 163.272v-3.546a1.466 1.466 0 0 1 1.466-1.466h-2.427a3.239 3.239 0 0 0 0 6.478h2.429a1.465 1.465 0 0 1-1.468-1.466z" class="cls-1" data-name="Path 36651" transform="translate(-1.381 -57.01)"/>
        <path id="Path_36652" d="M62.928 158.261H60.5a1.466 1.466 0 0 1 1.466 1.466v3.546a1.466 1.466 0 0 1-1.466 1.466h2.429a3.239 3.239 0 0 0 0-6.478z" class="cls-1" data-name="Path 36652" transform="translate(-6.212 -57.01)"/>
        <path id="Path_36653" d="M60.715 163.272v-3.546a1.466 1.466 0 1 0-2.932 0v3.546a1.466 1.466 0 1 0 2.932 0z" class="cls-1" data-name="Path 36653" transform="translate(-4.962 -57.01)"/>
        <path id="Path_36654" d="M54.2 199.272v-3.546a1.466 1.466 0 0 1 1.466-1.466h-2.427a3.239 3.239 0 1 0 0 6.478h2.429a1.465 1.465 0 0 1-1.468-1.466z" class="cls-1" data-name="Path 36654" transform="translate(-1.381 -73.694)"/>
        <path id="Path_36655" d="M62.928 194.261H60.5a1.466 1.466 0 0 1 1.466 1.466v3.546a1.466 1.466 0 0 1-1.466 1.466h2.429a3.239 3.239 0 0 0 0-6.478z" class="cls-1" data-name="Path 36655" transform="translate(-6.212 -73.695)"/>
        <path id="Path_36656" d="M60.715 199.272v-3.546a1.466 1.466 0 1 0-2.932 0v3.546a1.466 1.466 0 1 0 2.932 0z" class="cls-1" data-name="Path 36656" transform="translate(-4.962 -73.694)"/>
        <path id="Path_36657" d="M56.717 56.978h-4.859a4.858 4.858 0 0 1 0-9.717h4.858a4.858 4.858 0 0 1 0 9.717zM51.858 50.5a1.619 1.619 0 0 0 0 3.239h4.858a1.619 1.619 0 1 0 0-3.239z" class="cls-1" data-name="Path 36657" transform="translate(0 -5.642)"/>
        <path id="Path_36658" d="M56.717 92.978h-4.859a4.858 4.858 0 0 1 0-9.717h4.858a4.858 4.858 0 0 1 0 9.717zM51.858 86.5a1.619 1.619 0 0 0 0 3.239h4.858a1.619 1.619 0 0 0 0-3.239z" class="cls-1" data-name="Path 36658" transform="translate(0 -22.325)"/>
        <path id="Path_36659" d="M56.717 128.978h-4.859a4.858 4.858 0 0 1 0-9.717h4.858a4.858 4.858 0 0 1 0 9.717zm-4.859-6.478a1.619 1.619 0 0 0 0 3.239h4.858a1.619 1.619 0 1 0 0-3.239z" class="cls-1" data-name="Path 36659" transform="translate(0 -38.979)"/>
        <path id="Path_36660" d="M56.717 164.978h-4.859a4.858 4.858 0 0 1 0-9.717h4.858a4.858 4.858 0 0 1 0 9.717zm-4.859-6.478a1.619 1.619 0 0 0 0 3.239h4.858a1.619 1.619 0 1 0 0-3.239z" class="cls-1" data-name="Path 36660" transform="translate(0 -55.633)"/>
        <path id="Path_36661" d="M56.717 200.978h-4.859a4.858 4.858 0 0 1 0-9.717h4.858a4.858 4.858 0 0 1 0 9.717zm-4.859-6.478a1.619 1.619 0 0 0 0 3.239h4.858a1.619 1.619 0 1 0 0-3.239z" class="cls-1" data-name="Path 36661" transform="translate(0 -72.314)"/>
    </g>
</svg>
