<svg xmlns="http://www.w3.org/2000/svg" id="training_2_" width="100" height="100" data-name="training (2)" viewBox="0 0 100 100">
    <defs>
        <style>
            .cls-1{fill:#3939f8}
        </style>
    </defs>
    <path id="Path_36670" d="M120 32h16.134v3.227H120zm0 0" class="cls-1" data-name="Path 36670" transform="translate(-95.808 -25.546)"/>
    <path id="Path_36671" d="M67.361 96h-3.227v17.747h-3.227V100.84H57.68v12.907h-3.226v-8.067h-3.227v8.067H48v3.227h22.588v-3.227h-3.227zm0 0" class="cls-1" data-name="Path 36671" transform="translate(-38.32 -76.647)"/>
    <path id="Path_36672" d="M48 216h3.227v3.227H48zm0 0" class="cls-1" data-name="Path 36672" transform="translate(-38.32 -172.452)"/>
    <path id="Path_36673" d="M80 216h16.134v3.227H80zm0 0" class="cls-1" data-name="Path 36673" transform="translate(-63.872 -172.452)"/>
    <path id="Path_36674" d="M95.161 66.129A4.845 4.845 0 0 0 100 61.29V36.455a6.484 6.484 0 0 0-5.539-6.387l-5.751-.821v-2.7a9.644 9.644 0 0 0 3.226-7.193v-3.225a9.677 9.677 0 1 0-19.355 0v3.226a9.649 9.649 0 0 0 3.226 7.193v2.7l-9.039 1.292-5.551-6.345h.074v-8.066h3.226V6.452H47.442L40.99 0H23.526l-6.452 6.452H0v9.677h3.226v38.71H0v9.677h16.129v4.535L5.348 96.774H0V100h100v-3.226h-6.452V65.832a4.772 4.772 0 0 0 1.613.297zM83.785 46.192l-1.527 1.527-1.527-1.527 1.34-10.719c.063 0 .123.011.187.011s.124-.009.187-.011zm-7.979-30.063a6.452 6.452 0 0 1 12.9 0v3.226a6.452 6.452 0 0 1-12.9 0zm6.452 12.9a9.63 9.63 0 0 0 3.226-.565V30.2a3.558 3.558 0 0 1-6.452 0v-1.732a9.63 9.63 0 0 0 3.226.564zm-5.634 3.355a8.355 8.355 0 0 0 2.311 2.153l-1.6 12.816 4.925 4.925 4.925-4.925-1.6-12.816a8.334 8.334 0 0 0 2.311-2.153l6.113.873a3.242 3.242 0 0 1 2.769 3.194V61.29a1.613 1.613 0 1 1-3.226 0V38.71h-3.229v16.129H74.194V38.71h-9.74a1.609 1.609 0 0 1-1.259-.6L51.989 24.1a1.726 1.726 0 0 1-.376-1.073v-.343a1.716 1.716 0 0 1 3.006-1.129L65.49 33.977zm-49.2 38.581v25.809H15.261L25.3 70.968zm3.226 0h3.226v25.809h-3.231zm6.452 0h2.122l10.031 25.809H37.1zm5.584 0h2.99l10.031 25.809h-2.99zm5.707-1.916v-4.533h16.123v-9.677H61.29V40.734a4.8 4.8 0 0 0 3.163 1.2h6.515v54.84h-11.8zm25.801-10.984h6.452v38.71h-6.452zM3.226 9.677H18.41l6.452-6.452h14.793l6.452 6.452H61.29V12.9H3.226zm3.226 6.452h51.613v4.463l-1.018-1.163a4.942 4.942 0 0 0-8.66 3.253v.343a4.964 4.964 0 0 0 1.082 3.087l8.6 10.744v17.983H6.452zM3.226 58.065H61.29v3.225H3.226zm41.935 6.452v3.226H19.355v-3.227zm-26.316 6.451h2.99L11.8 96.774H8.81zm65.026 25.806V58.065h6.452v38.71zm0 0" class="cls-1" data-name="Path 36674"/>
    <path id="Path_36675" d="M185.68 160a9.68 9.68 0 1 0 9.68 9.68 9.69 9.69 0 0 0-9.68-9.68zm-1.613 3.456v4.611h-4.611a6.444 6.444 0 0 1 4.611-4.611zm-4.611 7.838h4.611v4.606a6.444 6.444 0 0 1-4.611-4.606zm7.838 4.611v-12.449a6.422 6.422 0 0 1 0 12.449zm0 0" class="cls-1" data-name="Path 36675" transform="translate(-140.519 -127.744)"/>
</svg>
