<svg xmlns="http://www.w3.org/2000/svg" id="XMLID_1362_" width="100" height="100" viewBox="0 0 100 100">
    <defs>
        <style>
            .cls-1{fill:#3939f8}
        </style>
    </defs>
    <g id="XMLID_177_">
        <path id="XMLID_214_" d="M44.173 139.049A17.815 17.815 0 0 0 79.7 141h1.389a1.953 1.953 0 0 0 1.953-1.953A21.073 21.073 0 0 0 61.988 118a1.953 1.953 0 0 0-1.953 1.953v1.389a17.84 17.84 0 0 0-15.862 17.707zm15.862-4.715l-6.4-6.4a13.838 13.838 0 0 1 6.4-2.655zm1.953 18.624A13.9 13.9 0 0 1 50.874 130.7l9.733 9.733a1.947 1.947 0 0 0 1.38.571h13.77a13.928 13.928 0 0 1-13.769 11.954zm1.953-30.942a17.175 17.175 0 0 1 15.08 15.084h-15.08z" class="cls-1" transform="translate(-35.545 -94.953)"/>
        <path id="XMLID_961_" d="M92.986 10.547H58.2V1.953A1.953 1.953 0 0 0 56.25 0h-12.5a1.953 1.953 0 0 0-1.95 1.953v8.594H30.338a1.953 1.953 0 0 0 0 3.906h62.648a3.111 3.111 0 0 1 3.108 3.108v50.816a3.111 3.111 0 0 1-3.108 3.108H7.014a3.111 3.111 0 0 1-3.108-3.108V17.561a3.111 3.111 0 0 1 3.108-3.108h7.667a1.953 1.953 0 0 0 0-3.906H7.014A7.022 7.022 0 0 0 0 17.561v50.816a7.022 7.022 0 0 0 7.014 7.014h21.053L17.009 97.162A1.953 1.953 0 0 0 18.75 100h12.5a1.953 1.953 0 0 0 1.741-1.069L41.8 81.6v16.447A1.953 1.953 0 0 0 43.75 100h12.5a1.953 1.953 0 0 0 1.95-1.953V81.6l8.805 17.336A1.953 1.953 0 0 0 68.75 100h12.5a1.953 1.953 0 0 0 1.741-2.838L71.933 75.391h21.053A7.022 7.022 0 0 0 100 68.377V17.561a7.022 7.022 0 0 0-7.014-7.014zm-47.283 0V3.906H54.3v6.641zM30.051 96.094h-8.118l10.516-20.7h8.119zm24.246 0H45.7v-20.7h8.6zm23.77 0h-8.118l-10.516-20.7h8.119z" class="cls-1"/>
        <path id="XMLID_1000_" d="M107.123 57.906a1.957 1.957 0 1 0-1.379-.572 1.972 1.972 0 0 0 1.379.572z" class="cls-1" transform="translate(-84.629 -43.453)"/>
        <path id="XMLID_1001_" d="M248.08 168.972h12.475a1.953 1.953 0 0 0 0-3.906H248.08a1.953 1.953 0 0 0 0 3.906z" class="cls-1" transform="translate(-198.055 -132.827)"/>
        <path id="XMLID_1025_" d="M248.08 120.972h22.436a1.953 1.953 0 0 0 0-3.906H248.08a1.953 1.953 0 0 0 0 3.906z" class="cls-1" transform="translate(-198.055 -94.202)"/>
        <path id="XMLID_1026_" d="M404.334 120.4a1.952 1.952 0 1 0-1.381.572 1.967 1.967 0 0 0 1.381-.572z" class="cls-1" transform="translate(-322.68 -94.205)"/>
        <path id="XMLID_1036_" d="M248.08 195.742h40.21a1.953 1.953 0 0 0 1.953-1.953v-25.523a1.953 1.953 0 0 0-3.906 0v23.569h-3.907v-19.284a1.953 1.953 0 0 0-1.953-1.953H271.1a1.953 1.953 0 0 0-1.953 1.953v3.237h-7.422a1.953 1.953 0 0 0-1.953 1.953v4.512h-7.422a1.953 1.953 0 0 0-1.953 1.953v7.629h-2.317a1.953 1.953 0 1 0 0 3.906zm24.975-21.242h5.469v17.331h-5.469V174.5zm-9.375 5.19h5.469v12.141h-5.469v-12.137zm-9.375 6.465h5.469v5.676h-5.469z" class="cls-1" transform="translate(-198.055 -133.83)"/>
    </g>
</svg>
